/* XPM */
static char *crossover_xpm[] = {
/* columns rows colors chars-per-pixel */
"48 48 196 2",
"   c black",
".  c #292928283636",
"X  c #030319196AEB",
"o  c #080819196666",
"O  c #01571C1C7373",
"+  c #040425256060",
"@  c #03032E2E6E6E",
"#  c #03032C2C7979",
"$  c #040431316161",
"%  c #030336366C6C",
"&  c #038333337E7E",
"*  c #03033F3F7F7F",
"=  c #25A63EBF7575",
"-  c #28283F3F7474",
";  c #26264E4E7B7B",
":  c #32324D4D6969",
">  c #343444447070",
",  c #5C5C55554C4C",
"<  c #474746466161",
"1  c #46464C4C6969",
"2  c #5A5A61616D6D",
"3  c #72725D5D5656",
"4  c #7B7B6A6A5E5E",
"5  c #00002ED9842E",
"6  c #008031E585D2",
"7  c #000035CF89D6",
"8  c #04043C3C8787",
"9  c #000E3B2D8DB8",
"0  c #00003EE990E6",
"q  c #070745458787",
"w  c #023545128DF4",
"e  c #0D0D4B4B8E0E",
"r  c #00A443C393F0",
"t  c #023B499F95EB",
"y  c #00854A8599A9",
"u  c #08084C4C9595",
"i  c #095F4AF59898",
"p  c #0C8D527D9DC8",
"a  c #11114E4E8E8E",
"s  c #11114F4F9191",
"d  c #191952528D8D",
"f  c #16565959A221",
"g  c #1BE35D07A386",
"h  c #2B2B5A5A8C8C",
"j  c #22225EDFA424",
"k  c #242462A2A666",
"l  c #26266565A8A8",
"z  c #29296666A8A8",
"x  c #2D586A6AAB2A",
"c  c #33F46E6EADED",
"v  c #367670F0AF2E",
"b  c #39E471C7AE58",
"n  c #3CBD74F5B186",
"m  c #43437373A6A6",
"M  c #45057B3BB534",
"N  c #49897DBDB636",
"B  c #4C4C8080B7B7",
"V  c #4E2981A6B8DD",
"C  c #56568282B2B2",
"Z  c #540B8585BA95",
"A  c #5C5C8585B0B0",
"S  c #5BB18B35BE3E",
"D  c #60608B8BB8B8",
"F  c #620C8F8FC0C0",
"G  c #65F8926DC22F",
"H  c #6A3F95C0C3EE",
"J  c #6EAE9918C5C5",
"K  c #72C89B9BC71C",
"L  c #75B59DDDC8C8",
"P  c #7D69A32CCB7C",
"I  c #979769691F1F",
"U  c #ABAB74742B2B",
"Y  c #B2B275752121",
"T  c #B2B27C7C2424",
"R  c #B0B07F7F2F2F",
"E  c #A0A074744C4C",
"W  c #A4A478784343",
"Q  c #DBDB6F6F1C1C",
"!  c #D2D271711E9E",
"~  c #DBDB79F920A0",
"^  c #E7E775751D1D",
"/  c #EF6F76761C1C",
"(  c #EDED79791D1D",
")  c #F31D7D271D9D",
"_  c #E2E27C7C2076",
"`  c #EBEB7F7F2020",
"'  c #BCBC95955B5B",
"]  c #CF4F84032525",
"[  c #CBCB80803838",
"{  c #CFCF90902A2A",
"}  c #D7D787872525",
"|  c #D5558B0A2626",
" . c #DFDF82822626",
".. c #D2D288883737",
"X. c #D8D896962A2A",
"o. c #F57582421EDF",
"O. c #E76783022222",
"+. c #E2E28B8B26A7",
"@. c #EBEB8F8F2626",
"#. c #E9E98F8F2D2D",
"$. c #E5E596962A2A",
"%. c #E2379BF12C2C",
"&. c #EDED94542868",
"*. c #ECEC9B9B2B2B",
"=. c #ECEC9A9A3737",
"-. c #EDED9F9F3D3D",
";. c #F587861820B3",
":. c #F635898921E2",
">. c #F76D964726EC",
",. c #F2F2979729AA",
"<. c #F6DF9A0E29B5",
"1. c #F8F89D9D2ACB",
"2. c #EDEDA4A42E2E",
"3. c #F574A4A42DD8",
"4. c #F3F3A8A82F2F",
"5. c #F9DEA54A2CDD",
"6. c #FA76AA3B2EC0",
"7. c #F8F8A0A03636",
"8. c #F9F9A4A43E3E",
"9. c #FAF5ADA23087",
"0. c #F9F9ADED3979",
"q. c #FAFAB1303ABB",
"w. c #C7C78E8E4343",
"e. c #D6D69E9E4343",
"r. c #C7C79D9D6262",
"t. c #D4D4A2A25D5D",
"y. c #D8D8AAAA6464",
"u. c #E5E5ADAD5252",
"i. c #EAEAB4B45E5E",
"p. c #F9F9A7274282",
"a. c #F9F9AFAF4545",
"s. c #F9F9ACAC4D4D",
"d. c #FB8DB56C44B2",
"f. c #FB50B55F4AA0",
"g. c #FBFBB9B94F4F",
"h. c #FA4FB15B55AB",
"j. c #FAFAB35D5A5A",
"k. c #FBFBBBBB54FF",
"l. c #FB9BBCFC5B1B",
"z. c #E5E5B2B26464",
"x. c #F6F6B6B66161",
"c. c #F7F7BEBE6F6F",
"v. c #FAFAB6B66363",
"b. c #FBFBBCBC6464",
"n. c #FAFABBBB6B6B",
"m. c #FAFABF147272",
"M. c #FBFBC1406464",
"N. c #FBFBC36D6B96",
"B. c #F0F0C0C07C7C",
"V. c #FC95C65F7474",
"C. c #FB61C45D7A13",
"Z. c #FCFCC8C87777",
"A. c #FCA6CA1F7D27",
"S. c #8141A5E5CD0C",
"D. c #85F3A93BCF3C",
"F. c #8BCBAD6DD150",
"G. c #93D9B30FD4BD",
"H. c #98FFB6E9D709",
"J. c #9A9AB8B8D7D7",
"K. c #9D9DB9B9D8D8",
"L. c #A16EBD23DA40",
"P. c #A7A7C1C1DCDC",
"I. c #AC87C47BDE95",
"U. c #B1B1C7C7E0E0",
"Y. c #B446CA37E1BC",
"T. c #BB65CF24E48E",
"R. c #FBFBC6C68282",
"E. c #FCC9CC6583EA",
"W. c #FC5BCD1C8A7A",
"Q. c #FCFCD0D08B8B",
"!. c #FCFCD2D29595",
"~. c #FD0ED5309C65",
"^. c #FCFCD66FA26F",
"/. c #FCFCD9D9A2A2",
"(. c #FDBDDBDBAB8B",
"). c #FDFDDF5FB4F4",
"_. c #FDFDE0E0B676",
"`. c #FDFDE24FBB4D",
"'. c #C36DD52AE7E7",
"]. c #C4C4D5D5E8E8",
"[. c #CB38DA91EAC5",
"{. c #D2D2DFDFEDED",
"}. c #D7D7E3E3EFEF",
"|. c #D8D8E3E3EFEF",
" X c #DF5FE8E8F2F2",
".X c #FDFDE3E3C0C0",
"XX c #FE97E9CFCC32",
"oX c #FEFEEC6BD2D2",
"OX c #FEFEF146DD87",
"+X c #E439EBEBF4F4",
"@X c #EAEAF0F0F7F7",
"#X c #FEFEF3F3E48E",
"$X c #FEFEF676E9E9",
"%X c #F5F5F8F8FBFB",
"&X c #FFFFFBFBF6F6",
"*X c None",
/* pixels */
"*X*X*X*X*X*X*X*X*X*X*X*X*X*X*X*X*X/ *X*X*X*X*X*X*X*X*X*X*X*X*X*X*X*X*X*X*X*X*X*X*X*X*X*X*X*X*X*X",
"*X*X*X*X*X*X*X*X*X*X*X*X*X*X*X*X*X*X/ Q *X*X*X*X*X*X*X*X*X*X*X*X*X*X*X*X*X*X*X*X*X*X*X*X*X*X*X*X",
"*X*X*X*X*X*X*X*X*X*X*X*X*X*X*X*X*X*X*X) ^ *X*X*X*X*X*X*X*X*X*X*X*X*X*X*X*X*X*X*X*X*X*X*X*X*X*X*X",
"*X*X*X*X*X*X*X*X*X*X*X*X*X*X*X*X*X*X*X*X) ( *X*X*X*X*X*X*X*X*X*X*X*X*X*X*X*X*X*X*X*X*X*X*X*X*X*X",
"*X*X*X*X*X*X*X*X*X*X*X*X*X*X*X*X*X*X*X*X*X) ( *X*X*X*X*X*X*X*X*X*X*X*X*X*X*X*X*X*X*X*X*X*X*X*X*X",
"*X*X*X*X*X*X*X*X*X*X*X*X*X*X*X*X*X*X*X*X*X*X) o.*X*X*X*X*X*X*X*X*X*X*X*X*X*X*X*X*X*X*X*X*X*X*X*X",
"*X*X*X*X*X*X*X*X*X*X*X*X*X*X*X*X*X*X*X*X*X*X! o.o.~ *X*X*X*X*X*X*X*X*X*X*X*X*X*X*X*X*X*X*X*X*X*X",
"*X*X*X*X*X*X*X*X*X*X*X*X*X*X*X*X*X*X*X*X*X*X*X^ o.o.~ *X*X*X*X*X*X*X*X*X*X*X*X*X*X*X*X*X*X*X*X*X",
"*X*X*X*X*X*X*X*X*X*X*X*X*X*X*X*X*X*X*X*X*X*X*X*X_ ;.;._ *X*X*X*X*X*X*X*X*X*X*X*X*X*X*X*X*X*X*X*X",
"*X*X*X*X*X*X*X*X*X*X*X*X*X*X*X*X*X*X*X*X*X*X*X*X*X;.;.;._ *X*X*X*X*X*X*X*X*X*X*X*X*X*X*X*X*X*X*X",
"*X*X*X*X*X*X*X*X*X*X*X*X*X*X*X*X*X*X*X*X*X*X*X*X*X*X;.:.:.O.*X*X*X*X*X*X*X*X*X*X*X*X*X*X*X*X*X*X",
"*X*X*X*X*X*X*X*X*X*X*X*X*X*X*X*X*X*X*X*X*X*X*X*X*X*X~ :.:.:.O.*X*X*X*X*X*X*X*X*X*X*X*X*X*X*X*X*X",
"*X*X*X*X*X*X*X*X*X*X*X*X*X*X*X*X*XZ N b l f p y y t e 2 4 E [  .*X*X*X*X*X*X*X*X*X*X*X*X*X*X*X*X",
"*X*X*X*X*X*X*X*X*X*X*X*X*XP S.L L H S B c l p y y y y y y y y u e w *X*X*X*X*X*X*X*X*X*X*X*X*X*X",
"*X*X*X*X*X*X*X*X*X*X*XS.F.G.G.G.F.P J S N c g i y y y y y y y y y y y y t w *X*X*X*X*X*X*X*X*X*X",
"*X*X*X*X*X*X*X*X*X*XP G.L.I.U.I.K.G.P H Z n l p y y y y y y y y y y y y y y y y w *X*X*X*X*X*X*X",
"*X*X*X*X*X*X*X*X*XL F.L.Y.'.[.].Y.L.F.L S M x f y y y y y y y y y y y y y y y y y y r *X*X*X*X*X",
"*X*X*X*X*X*X*X*XG P H.I.].}. X}.].I.H.P G B c g y y y y y y y y y i s d s r t t y y y y t t *X*X",
"*X*X*X*X*X*X*XZ H S.J.Y.[.+X%X+X[.U.J.S.H B v g p y y w * % , ..#.>.>.>.@.*X*X*X*X*X*X*X*X*X*X*X",
"*X*X*X*X*X*X*XV H P H.Y.[. X@X X[.U.J.P H V c g w $ *X*X*X*X*X,.>.>.>.>.>.+.*X*X*X*X*X*X*X*X*X*X",
"*X*X*X*X*X*Xc M F L G.P.T.[.{.[.T.P.G.L D B h *X*X*X*X*X*X*X*X+.>.>.>.<.<.<.~ *X*X*X*X*X*X*X*X*X",
"*X*X*X*X*X*Xc M S J D.J.I.Y.T.Y.P.J.D.K C *X*X*X*X*X*X*X*X*X*X*X>.>.<.<.<.1.2.*X*X*X*X*X*X*X*X*X",
"*X*X*X*X*X*Xk v V F L F.G.K.K.K.H.D.L A *X*X*X*X*X*X*X*X*X*X*X*X,.<.7.8.p.p.p.-.*X*X*X*X*X*X*X*X",
"*X*X*X*X*X*Xg x n V F J P D.F.D.P J S *X*X*X*X*X*X*X*X*X*X*X*X*X=.p.s.h.j.v.j.h.w.*X*X*X*X*X*X*X",
"*X*X*X*X*X*Xp g x n Z S G J J J G S : *X*X*X*X*X*X*X*X*X*X*X*X*X*Xh.v.n.m.m.m.n.b.*X*X*X*X*X*X*X",
"*X*X*X*X*X*Xt p g x n M V Z Z Z V m *X*X*X*X*X*X*X*X*X*X*X*X*X*X*Xn.C.R.W.W.W.R.V.t.*X*X*X*X*X*X",
"*X*X*X*X*X*X*Xy p f k x v n n n c ; *X*X*X*X*X*X*X*X*X*X*X*X*X*X*XR.W.!.^.^.^.!.W.C.*X*X*X*X*X*X",
"*X*X*X*X*X*X*Xt y i i f g g j j j *X*X*X*X*X*X*X*X*X*X*X*X*X*X*X*XW.^.(.).).).(.!.W.r.*X*X*X*X*X",
"*X*X*X*X*X*X*Xr y r y y i i i i t *X*X*X*X*X*X*X*X*X*X*X*X*X*X*X*X~.(..XXXXXXX_.(.!.c.*X*X*X*X*X",
"*X*X*X*X*X*X*X*Xr r r 0 r r r r 0 *X*X*X*X*X*X*X*X*X*X*X*X*X*X*X*X^.).oX#X$XOXXX).~.W.*X*X*X*X*X",
"*X*X*X*X*X*X*X*Xw r r 0 0 0 0 0 0 *X*X*X*X*X*X*X*X*X*X*X*X*X*X*XW.^.`.oX$X&X#XXX_.~.W.' *X*X*X*X",
"*X*X*X*X*X*X*X*X*X0 0 0 0 0 9 0 9 *X*X*X*X*X*X*X*X*X*X*X*X*X*X*XW./.`.XXOX$XOXXX_.~.W.y.*X*X*X*X",
"*X*X*X*X*X*X*X*X*X8 9 9 9 9 9 9 9 *X*X*X*X*X*X*X*X*X*X*X*X*X*Xc.E.~.(.`.XXoXXX`./.!.A.z.*X*X*X*X",
"*X*X*X*X*X*X*X*X*X*X9 9 9 9 7 9 9 @ *X*X*X*X*X*X*X*X*X*X*X*X*Xb.C.W./.(._.`._././.Q.Z.i.*X*X*X*X",
"*X*X*X*X*X*X*X*X*X*X*X9 7 9 7 7 7 6 *X*X*X*X*X*X*X*X*X*X*X*Xd.j.N.A.W.~.~./.~.~.Q.Z.N.u.*X*X*X*X",
"*X*X*X*X*X*X*X*X*X*X*X& 7 7 6 7 6 6 *X*X*X*X*X*X*X*X*X*X*X1.0.f.l.N.Z.E.Q.Q.Q.A.Z.M.k.e.*X*X*X*X",
"*X*X*X*X*X*X*X*X*X*X*X*X6 6 6 6 5 6 + *X*X*X*X*X*X*X*X3.6.5.6.8.f.l.M.N.Z.V.Z.N.M.l.g.R *X*X*X*X",
"*X*X&.*X*X*X*X*X*X*X*X*X*X6 6 5 5 5 # *X*X*X*X*X*X6.5.5.5.6.6.6.8.d.g.l.l.l.l.l.g.q.q.*X*X*X*X*X",
"*X*X*X*X,.<.<.,.*.&.*X*X*X*X- - > > 1 U $.3.5.5.6.5.6.5.6.6.6.6.6.9.q.d.d.d.d.d.q.9.X.*X*X*X*X*X",
"*X*X*X*X*X*X} ,.1.1.1.1.1.1.5.1.1.6.1.5.1.6.5.5.6.5.6.6.6.6.6.6.6.9.9.9.q.9.9.9.9.4.*X*X*X*X*X*X",
"*X*X*X*X*X*X*X*X*X| <.5.5.1.5.5.6.1.5.5.5.6.5.6.6.6.6.6.6.6.6.9.9.9.9.9.9.9.9.9.4.*X*X*X*X*X*X*X",
"*X*X*X*X*X*X*X*X*X*X*X*X] *.5.5.1.6.6.5.5.6.6.6.6.6.6.6.6.9.9.9.9.9.9.9.9.9.9.2.*X*X*X*X*X*X*X*X",
"*X*X*X*X*X*X*X*X*X*X*X*X*X*X*XY | *.6.6.6.5.6.6.6.6.6.9.9.9.6.9.9.9.9.9.9.%.I *X*X*X*X*X*X*X*X*X",
"*X*X*X*X*X*X*X*X*X*X*X*X*X*X*X*X*X*X. < 3 W X.3.6.9.9.9.9.9.9.9.9.4.X.T *X*X*X*X*X*X*X*X*X*X*X*X",
"*X*X*X*X*X*X*X*X*X*X*X*X*X*X*X*X*X*X*X*XO # *X*X*X*X*X*X*X*X*X*X*X*X*X*X*X*X*X*X*X*X*X*X*X*X*X*X",
"*X*X*X*X*X*X*X*X*X*X*X*X*X*X*X*X*X*X*X*X*XO X *X*X*X*X*X*X*X*X*X*X*X*X*X*X*X*X*X*X*X*X*X*X*X*X*X",
"*X*X*X*X*X*X*X*X*X*X*X*X*X*X*X*X*X*X*X*X*X*XX *X*X*X*X*X*X*X*X*X*X*X*X*X*X*X*X*X*X*X*X*X*X*X*X*X",
"*X*X*X*X*X*X*X*X*X*X*X*X*X*X*X*X*X*X*X*X*X*X*Xo *X*X*X*X*X*X*X*X*X*X*X*X*X*X*X*X*X*X*X*X*X*X*X*X"
};
